<?xml version="1.0" standalone="no"?>
<!DOCTYPE svg PUBLIC "-//W3C//DTD SVG 20010904//EN"
 "http://www.w3.org/TR/2001/REC-SVG-20010904/DTD/svg10.dtd">
<svg version="1.0" xmlns="http://www.w3.org/2000/svg"
 width="500.000000pt" height="500.000000pt" viewBox="0 0 500.000000 500.000000"
 preserveAspectRatio="xMidYMid meet">
<metadata>
Created by potrace 1.10, written by Peter Selinger 2001-2011
</metadata>
<g transform="translate(0.000000,500.000000) scale(0.050000,-0.050000)"
fill="#134f12" stroke="none">
<path d="M4550 9571 c-44 -28 -104 -50 -133 -50 -81 -1 -117 -21 -117 -64 0
-22 -13 -65 -30 -97 -17 -33 -28 -98 -25 -154 l5 -96 -104 -6 c-114 -7 -148
-46 -107 -122 41 -76 25 -202 -39 -305 -73 -119 -76 -181 -11 -233 54 -42 48
-64 -18 -64 -127 0 -208 -178 -141 -307 39 -75 41 -73 -39 -73 -108 0 -116
-92 -17 -191 32 -32 32 -34 -5 -23 -302 89 -404 -62 -215 -318 25 -34 46 -75
46 -91 0 -16 11 -40 25 -54 20 -21 17 -32 -15 -55 -98 -73 -182 -52 -194 48
-6 51 -12 54 -101 51 -52 -2 -95 5 -95 15 0 10 -17 18 -38 18 -53 0 -155 89
-170 148 -7 28 -31 53 -61 60 -37 9 -50 27 -55 77 -5 54 -15 66 -61 71 -42 5
-55 17 -55 51 0 60 -36 93 -103 93 -63 0 -95 34 -48 52 43 17 40 106 -4 120
-19 6 -57 23 -85 37 -27 15 -79 33 -115 40 -36 8 -75 32 -86 53 -11 21 -42 38
-68 38 -68 0 -111 20 -111 51 0 31 -67 73 -105 67 -14 -3 -41 3 -61 11 -20 9
-71 11 -114 6 -68 -10 -79 -6 -84 32 -4 32 -22 45 -70 49 -34 4 -74 19 -87 35
-13 16 -42 29 -63 29 -22 0 -63 18 -91 41 -54 42 -203 39 -258 -4 -31 -25 -56
-236 -31 -261 11 -11 15 -54 9 -96 -8 -62 -2 -80 30 -98 32 -17 46 -57 66
-194 14 -94 36 -175 48 -178 11 -4 46 -12 76 -19 73 -16 70 -36 -22 -136 -147
-163 -130 -250 51 -259 114 -6 116 -7 126 -71 12 -77 66 -145 116 -145 37 0
84 -36 84 -64 0 -9 -18 -16 -41 -16 -105 0 -193 -88 -134 -135 37 -29 354 -66
440 -52 47 8 75 4 75 -9 0 -12 15 -36 34 -55 32 -32 32 -38 0 -93 -70 -122
-39 -176 100 -176 55 0 68 -7 58 -31 -18 -47 40 -58 175 -32 248 46 377 -210
162 -325 -21 -11 -63 -36 -93 -56 -52 -34 -54 -34 -66 4 -17 53 -102 53 -130
0 -12 -22 -38 -40 -57 -40 -39 0 -104 -62 -141 -134 -18 -36 -35 -42 -80 -33
-54 10 -162 -68 -162 -119 0 -9 -18 -11 -40 -4 -64 20 -154 -8 -219 -69 -50
-47 -64 -51 -83 -29 -32 39 -61 35 -136 -21 -36 -26 -77 -44 -91 -39 -13 6
-36 -4 -50 -21 -14 -17 -47 -31 -73 -31 -28 0 -60 -20 -80 -50 -29 -44 -47
-50 -153 -50 -100 0 -133 -9 -190 -53 -52 -39 -73 -46 -85 -27 -29 46 -155
-12 -170 -79 -12 -54 -15 -55 -72 -34 -45 17 -68 16 -98 -2 -22 -14 -60 -25
-86 -25 -97 0 -138 -87 -142 -308 -3 -131 25 -148 199 -118 100 17 146 17 184
0 43 -19 55 -16 85 21 50 61 76 63 106 5 33 -64 346 -71 414 -10 36 33 40 33
73 0 28 -28 55 -32 151 -21 68 8 116 5 116 -6 0 -10 23 -24 50 -31 28 -7 50
-26 50 -42 0 -68 134 -74 230 -11 59 39 251 -3 281 -61 29 -56 101 -79 136
-44 8 8 53 12 101 9 64 -4 90 3 99 26 15 39 80 40 113 1 33 -40 148 -38 182 2
56 68 318 3 318 -79 0 -26 14 -59 30 -73 32 -26 42 -100 13 -100 -9 0 -28 -23
-43 -51 -23 -42 -37 -48 -85 -38 -44 10 -77 -1 -139 -43 -44 -31 -108 -57
-142 -57 -57 -1 -64 -9 -94 -111 -66 -221 -120 -279 -248 -266 -74 8 -89 2
-149 -62 -43 -47 -84 -72 -118 -72 -61 0 -177 -83 -195 -140 -11 -35 -16 -37
-42 -11 -44 44 -80 19 -127 -90 -23 -55 -49 -99 -58 -99 -29 0 -69 -106 -85
-220 -8 -60 -21 -135 -29 -165 -20 -79 19 -115 123 -115 85 0 97 10 90 73 -1
12 11 28 28 34 18 7 30 0 30 -18 0 -60 78 -26 162 72 81 92 214 179 276 179
14 0 82 54 150 120 69 66 135 120 146 120 12 0 32 14 46 30 18 21 33 24 50 10
13 -11 123 -25 244 -31 l220 -11 58 69 c32 38 74 93 93 121 20 28 75 68 124
90 74 32 92 52 113 120 24 80 58 111 58 52 0 -16 25 -44 55 -63 106 -66 105
-62 105 -576 0 -272 9 -514 21 -556 12 -41 32 -260 46 -486 30 -483 42 -515
198 -525 148 -10 146 -26 139 1171 -3 564 2 1025 10 1025 9 0 31 -27 50 -60
26 -46 48 -60 95 -60 42 0 77 -18 114 -60 30 -33 65 -60 78 -60 13 0 35 -25
48 -55 22 -50 180 -185 217 -185 19 0 64 -118 64 -165 0 -18 18 -38 40 -45 22
-7 40 -21 40 -31 0 -11 21 -19 47 -19 67 0 191 -100 192 -155 1 -25 24 -59 55
-80 30 -19 77 -56 105 -82 63 -59 187 -123 236 -123 21 0 56 -17 79 -38 22
-21 61 -42 86 -45 25 -4 52 -20 60 -37 111 -240 128 -259 235 -256 44 1 85
-17 135 -61 39 -35 89 -63 111 -63 26 0 39 -14 39 -40 0 -64 138 -55 187 12
79 109 68 373 -18 412 -60 27 -60 45 -8 163 49 110 34 152 -70 201 -50 24 -71
47 -71 78 0 56 -53 134 -90 134 -63 0 -85 137 -31 199 58 67 53 118 -14 132
-119 27 -123 30 -129 105 -6 70 -11 75 -107 103 -96 27 -101 31 -101 98 0 49
-13 78 -45 101 -25 18 -76 57 -112 87 -36 30 -81 55 -99 55 -22 0 -32 18 -32
58 0 61 -27 93 -89 105 -22 4 -44 31 -53 62 -17 66 11 92 41 37 21 -39 23 -39
133 10 99 43 129 48 258 36 138 -12 146 -11 160 31 10 32 23 40 47 29 91 -42
262 -32 352 20 48 29 109 52 135 52 25 0 82 14 126 29 44 16 116 30 161 30 79
1 155 37 204 98 22 27 30 26 66 -13 43 -47 100 -56 158 -25 24 13 57 12 99 -4
49 -19 71 -19 102 0 22 14 58 25 81 25 22 0 65 18 95 40 56 41 321 48 410 10
53 -22 131 20 146 79 15 63 69 66 146 10 79 -59 189 -48 199 19 4 27 26 65 50
85 l43 37 -51 45 c-84 74 -117 144 -123 268 -6 111 -9 117 -61 123 -30 4 -55
14 -55 24 0 64 -197 121 -240 70 -32 -38 -80 -39 -80 -2 0 78 -246 165 -372
133 -120 -30 -238 5 -318 93 -65 73 -216 101 -249 47 -13 -20 -31 -15 -79 21
-61 45 -65 45 -121 12 -55 -33 -60 -33 -85 1 -32 42 -78 73 -190 126 -46 22
-90 49 -97 61 -7 11 -42 18 -76 15 -35 -3 -75 2 -89 10 -29 18 -113 3 -247
-43 l-94 -32 -83 86 c-67 69 -93 83 -132 73 -35 -8 -48 -3 -48 18 0 33 -85 63
-119 42 -45 -28 -18 74 44 167 36 53 74 113 86 132 20 34 24 34 74 2 58 -38
120 -21 143 40 12 31 15 31 49 1 74 -67 179 -28 211 79 29 96 224 195 272 138
61 -74 98 -37 104 105 l6 135 145 6 c80 3 145 13 145 22 0 8 45 40 99 70 55
29 105 63 112 74 7 11 38 15 68 8 60 -13 121 28 121 81 0 37 39 36 89 -2 23
-17 83 -29 153 -29 132 0 138 7 138 179 0 143 41 195 80 101 18 -44 46 -66
104 -84 125 -37 146 -12 144 169 l-3 149 55 -20 c65 -25 120 -7 133 42 10 36
91 80 187 103 30 6 63 37 82 75 23 47 38 58 54 42 38 -38 84 20 84 106 0 103
-34 118 -266 118 -129 0 -208 10 -247 30 -95 50 -273 39 -343 -20 -33 -27 -70
-50 -82 -50 -12 0 -22 -8 -22 -17 0 -9 -47 -5 -104 10 -141 36 -154 35 -176
-23 -22 -57 -35 -60 -89 -19 -83 63 -180 38 -290 -74 -56 -57 -104 -99 -107
-95 -3 4 -17 33 -30 63 -39 91 -91 70 -217 -90 -62 -80 -117 -149 -121 -154
-4 -5 -26 2 -48 16 -57 35 -100 15 -157 -72 l-49 -75 -13 65 c-23 110 -163
180 -209 105 -23 -36 -230 -160 -268 -160 -21 0 -52 -23 -70 -50 -28 -42 -40
-47 -73 -29 -45 24 -73 11 -126 -56 -28 -35 -43 -41 -64 -24 -20 16 -36 12
-66 -18 -91 -91 -138 -110 -162 -66 -43 81 -26 177 39 223 98 70 79 133 -48
159 -40 8 -64 26 -69 52 -3 21 -19 49 -35 61 -24 20 -24 31 2 80 16 32 30 79
30 104 0 34 19 54 70 75 94 39 90 104 -9 156 -72 37 -135 166 -105 213 33 54
30 113 -6 127 -41 16 -38 47 10 88 47 40 49 53 15 89 -48 49 -72 127 -51 163
36 65 4 93 -104 93 -132 0 -144 32 -62 164 78 125 74 159 -26 186 -100 29
-136 105 -99 209 21 61 20 74 -8 96 -43 33 -42 33 -135 -24z m359 -1329 c6 -9
-3 -29 -19 -42 -34 -28 -41 -100 -10 -100 11 0 20 -13 20 -30 0 -49 -35 -34
-49 22 -15 62 3 128 35 128 14 0 12 9 -6 20 -18 12 -20 20 -6 20 13 0 29 -8
35 -18z m3251 -337 c-1 -35 -6 -46 -16 -30 -9 14 -34 38 -55 54 -37 28 -37 30
16 30 47 1 55 -7 55 -54z m-3954 -30 c35 -25 68 -47 72 -50 5 -3 3 -10 -3 -17
-7 -7 -24 -2 -39 10 -14 12 -48 40 -76 61 -69 55 -33 51 46 -4z m2474 -166 c0
-33 -61 -149 -79 -149 -30 0 -26 36 13 102 31 51 66 77 66 47z m1071 -4 c28
-20 121 -300 105 -316 -39 -38 -96 97 -96 227 0 49 -11 70 -45 83 -25 10 -32
19 -15 19 17 1 39 -5 51 -13z m-5311 -1045 c0 -37 -92 -67 -133 -44 -35 20
-34 23 13 41 66 27 120 28 120 3z m-2000 -1667 l0 -88 -85 -11 c-100 -14 -101
-13 -84 54 9 36 27 52 56 52 24 0 55 18 68 40 37 59 45 50 45 -47z m2846 -443
c33 -70 33 -70 -15 -70 -26 0 -52 -11 -57 -25 -6 -17 -14 -14 -24 10 -15 36
23 155 49 155 7 0 29 -31 47 -70z m1994 -470 c0 -11 13 -20 29 -20 37 0 62
-41 36 -57 -11 -7 -25 -26 -30 -43 -5 -16 -7 -6 -3 24 5 39 -4 57 -33 66 -40
13 -55 50 -19 50 11 0 20 -9 20 -20z m840 -1674 c22 -19 40 -43 40 -52 0 -9
-14 -3 -31 15 -18 17 -49 31 -70 31 -22 0 -39 9 -39 20 0 31 56 23 100 -14z"/>
</g>
</svg>
